<svg xmlns="http://www.w3.org/2000/svg" viewBox="0 0 1218.0 831.1">
<rect width="100%" height="100%" fill="#11151c"/>
<text x="609.0" y="25" fill="#f8f9fa" font-family="sans-serif" font-size="18" font-weight="700" text-anchor="middle">Hat A6 exception variant 2</text>
<text x="609.0" y="47" fill="#adb5bd" font-family="sans-serif" font-size="12" text-anchor="middle">proposal rank 5, deletion 7, frequency 821; at least two core covers</text>
<text x="294.0" y="72" fill="#dee2e6" font-family="sans-serif" font-size="14" font-weight="600" text-anchor="middle">full scaffold (8 hats)</text>
<polygon points="231.00,207.15 252.00,170.77 294.00,170.77 336.00,170.77 357.00,207.15 420.00,170.77 483.00,207.15 462.00,243.52 420.00,243.52 420.00,316.27 357.00,352.64 336.00,316.27 294.00,316.27 294.00,243.52" fill="#f2c14e" fill-opacity="0.78" stroke="#f8f9fa" stroke-width="1.4" stroke-linejoin="round"/>
<circle cx="354.00" cy="238.32" r="9" fill="#11151c" fill-opacity="0.82" stroke="#f2c14e" stroke-width="1.5"/>
<text x="354.00" y="242.32" fill="#f8f9fa" font-family="sans-serif" font-size="11" font-weight="700" text-anchor="middle">1</text>
<polygon points="105.00,570.88 126.00,534.50 168.00,534.50 210.00,534.50 231.00,570.88 294.00,534.50 357.00,570.88 336.00,607.25 294.00,607.25 294.00,680.00 231.00,716.37 210.00,680.00 168.00,680.00 168.00,607.25" fill="#f78154" fill-opacity="0.78" stroke="#f8f9fa" stroke-width="1.4" stroke-linejoin="round"/>
<circle cx="228.00" cy="602.05" r="9" fill="#11151c" fill-opacity="0.82" stroke="#f78154" stroke-width="1.5"/>
<text x="228.00" y="606.05" fill="#f8f9fa" font-family="sans-serif" font-size="11" font-weight="700" text-anchor="middle">2</text>
<polygon points="231.00,352.64 252.00,316.27 294.00,316.27 336.00,316.27 357.00,352.64 420.00,316.27 483.00,352.64 462.00,389.01 420.00,389.01 420.00,461.76 357.00,498.13 336.00,461.76 294.00,461.76 294.00,389.01" fill="#4d9078" fill-opacity="0.78" stroke="#f8f9fa" stroke-width="1.4" stroke-linejoin="round"/>
<circle cx="354.00" cy="383.82" r="9" fill="#11151c" fill-opacity="0.82" stroke="#4d9078" stroke-width="1.5"/>
<text x="354.00" y="387.82" fill="#f8f9fa" font-family="sans-serif" font-size="11" font-weight="700" text-anchor="middle">3</text>
<polygon points="105.00,352.64 84.00,316.27 105.00,279.89 126.00,243.52 168.00,243.52 168.00,170.77 231.00,134.40 252.00,170.77 231.00,207.15 294.00,243.52 294.00,316.27 252.00,316.27 231.00,352.64 168.00,316.27" fill="#577590" fill-opacity="0.78" stroke="#f8f9fa" stroke-width="1.4" stroke-linejoin="round"/>
<circle cx="193.50" cy="261.71" r="9" fill="#11151c" fill-opacity="0.82" stroke="#577590" stroke-width="1.5"/>
<text x="193.50" y="265.71" fill="#f8f9fa" font-family="sans-serif" font-size="11" font-weight="700" text-anchor="middle">4</text>
<polygon points="168.00,534.50 126.00,534.50 105.00,498.13 84.00,461.76 105.00,425.38 42.00,389.01 42.00,316.27 84.00,316.27 105.00,352.64 168.00,316.27 231.00,352.64 210.00,389.01 231.00,425.38 168.00,461.76" fill="#9b5de5" fill-opacity="0.78" stroke="#f8f9fa" stroke-width="1.4" stroke-linejoin="round"/>
<circle cx="133.50" cy="412.39" r="9" fill="#11151c" fill-opacity="0.82" stroke="#9b5de5" stroke-width="1.5"/>
<text x="133.50" y="416.39" fill="#f8f9fa" font-family="sans-serif" font-size="11" font-weight="700" text-anchor="middle">5</text>
<polygon points="483.00,570.88 504.00,607.25 483.00,643.62 462.00,680.00 420.00,680.00 420.00,752.74 357.00,789.12 336.00,752.74 357.00,716.37 294.00,680.00 294.00,607.25 336.00,607.25 357.00,570.88 420.00,607.25" fill="#43aa8b" fill-opacity="0.78" stroke="#f8f9fa" stroke-width="1.4" stroke-linejoin="round"/>
<circle cx="394.50" cy="661.81" r="9" fill="#11151c" fill-opacity="0.82" stroke="#43aa8b" stroke-width="1.5"/>
<text x="394.50" y="665.81" fill="#f8f9fa" font-family="sans-serif" font-size="11" font-weight="700" text-anchor="middle">6</text>
<polygon points="420.00,389.01 462.00,389.01 483.00,425.38 504.00,461.76 483.00,498.13 546.00,534.50 546.00,607.25 504.00,607.25 483.00,570.88 420.00,607.25 357.00,570.88 378.00,534.50 357.00,498.13 420.00,461.76" fill="#f94144" fill-opacity="0.78" stroke="#f8f9fa" stroke-width="1.4" stroke-linejoin="round"/>
<circle cx="454.50" cy="511.12" r="9" fill="#11151c" fill-opacity="0.82" stroke="#f94144" stroke-width="1.5"/>
<text x="454.50" y="515.12" fill="#f8f9fa" font-family="sans-serif" font-size="11" font-weight="700" text-anchor="middle">7</text>
<polygon points="357.00,570.88 378.00,534.50 357.00,498.13 336.00,461.76 294.00,461.76 294.00,389.01 231.00,352.64 210.00,389.01 231.00,425.38 168.00,461.76 168.00,534.50 210.00,534.50 231.00,570.88 294.00,534.50" fill="#90be6d" fill-opacity="0.78" stroke="#f8f9fa" stroke-width="1.4" stroke-linejoin="round"/>
<circle cx="268.50" cy="479.94" r="9" fill="#11151c" fill-opacity="0.82" stroke="#90be6d" stroke-width="1.5"/>
<text x="268.50" y="483.94" fill="#f8f9fa" font-family="sans-serif" font-size="11" font-weight="700" text-anchor="middle">8</text>
<text x="924.0" y="72" fill="#dee2e6" font-family="sans-serif" font-size="14" font-weight="600" text-anchor="middle">one-child exception (7 hats)</text>
<polygon points="861.00,207.15 882.00,170.77 924.00,170.77 966.00,170.77 987.00,207.15 1050.00,170.77 1113.00,207.15 1092.00,243.52 1050.00,243.52 1050.00,316.27 987.00,352.64 966.00,316.27 924.00,316.27 924.00,243.52" fill="#f94144" fill-opacity="0.10" stroke="#f94144" stroke-width="2.2" stroke-dasharray="7 5" stroke-linejoin="round"/>
<circle cx="984.00" cy="238.32" r="9" fill="#11151c" fill-opacity="0.82" stroke="#f2c14e" stroke-width="1.5"/>
<text x="984.00" y="242.32" fill="#f8f9fa" font-family="sans-serif" font-size="11" font-weight="700" text-anchor="middle">1</text>
<polygon points="735.00,570.88 756.00,534.50 798.00,534.50 840.00,534.50 861.00,570.88 924.00,534.50 987.00,570.88 966.00,607.25 924.00,607.25 924.00,680.00 861.00,716.37 840.00,680.00 798.00,680.00 798.00,607.25" fill="#f78154" fill-opacity="0.78" stroke="#f8f9fa" stroke-width="1.4" stroke-linejoin="round"/>
<circle cx="858.00" cy="602.05" r="9" fill="#11151c" fill-opacity="0.82" stroke="#f78154" stroke-width="1.5"/>
<text x="858.00" y="606.05" fill="#f8f9fa" font-family="sans-serif" font-size="11" font-weight="700" text-anchor="middle">2</text>
<polygon points="861.00,352.64 882.00,316.27 924.00,316.27 966.00,316.27 987.00,352.64 1050.00,316.27 1113.00,352.64 1092.00,389.01 1050.00,389.01 1050.00,461.76 987.00,498.13 966.00,461.76 924.00,461.76 924.00,389.01" fill="#4d9078" fill-opacity="0.78" stroke="#f8f9fa" stroke-width="1.4" stroke-linejoin="round"/>
<circle cx="984.00" cy="383.82" r="9" fill="#11151c" fill-opacity="0.82" stroke="#4d9078" stroke-width="1.5"/>
<text x="984.00" y="387.82" fill="#f8f9fa" font-family="sans-serif" font-size="11" font-weight="700" text-anchor="middle">3</text>
<polygon points="735.00,352.64 714.00,316.27 735.00,279.89 756.00,243.52 798.00,243.52 798.00,170.77 861.00,134.40 882.00,170.77 861.00,207.15 924.00,243.52 924.00,316.27 882.00,316.27 861.00,352.64 798.00,316.27" fill="#577590" fill-opacity="0.78" stroke="#f8f9fa" stroke-width="1.4" stroke-linejoin="round"/>
<circle cx="823.50" cy="261.71" r="9" fill="#11151c" fill-opacity="0.82" stroke="#577590" stroke-width="1.5"/>
<text x="823.50" y="265.71" fill="#f8f9fa" font-family="sans-serif" font-size="11" font-weight="700" text-anchor="middle">4</text>
<polygon points="798.00,534.50 756.00,534.50 735.00,498.13 714.00,461.76 735.00,425.38 672.00,389.01 672.00,316.27 714.00,316.27 735.00,352.64 798.00,316.27 861.00,352.64 840.00,389.01 861.00,425.38 798.00,461.76" fill="#9b5de5" fill-opacity="0.78" stroke="#f8f9fa" stroke-width="1.4" stroke-linejoin="round"/>
<circle cx="763.50" cy="412.39" r="9" fill="#11151c" fill-opacity="0.82" stroke="#9b5de5" stroke-width="1.5"/>
<text x="763.50" y="416.39" fill="#f8f9fa" font-family="sans-serif" font-size="11" font-weight="700" text-anchor="middle">5</text>
<polygon points="1113.00,570.88 1134.00,607.25 1113.00,643.62 1092.00,680.00 1050.00,680.00 1050.00,752.74 987.00,789.12 966.00,752.74 987.00,716.37 924.00,680.00 924.00,607.25 966.00,607.25 987.00,570.88 1050.00,607.25" fill="#43aa8b" fill-opacity="0.78" stroke="#f8f9fa" stroke-width="1.4" stroke-linejoin="round"/>
<circle cx="1024.50" cy="661.81" r="9" fill="#11151c" fill-opacity="0.82" stroke="#43aa8b" stroke-width="1.5"/>
<text x="1024.50" y="665.81" fill="#f8f9fa" font-family="sans-serif" font-size="11" font-weight="700" text-anchor="middle">6</text>
<polygon points="1050.00,389.01 1092.00,389.01 1113.00,425.38 1134.00,461.76 1113.00,498.13 1176.00,534.50 1176.00,607.25 1134.00,607.25 1113.00,570.88 1050.00,607.25 987.00,570.88 1008.00,534.50 987.00,498.13 1050.00,461.76" fill="#f94144" fill-opacity="0.78" stroke="#f8f9fa" stroke-width="1.4" stroke-linejoin="round"/>
<circle cx="1084.50" cy="511.12" r="9" fill="#11151c" fill-opacity="0.82" stroke="#f94144" stroke-width="1.5"/>
<text x="1084.50" y="515.12" fill="#f8f9fa" font-family="sans-serif" font-size="11" font-weight="700" text-anchor="middle">7</text>
<polygon points="987.00,570.88 1008.00,534.50 987.00,498.13 966.00,461.76 924.00,461.76 924.00,389.01 861.00,352.64 840.00,389.01 861.00,425.38 798.00,461.76 798.00,534.50 840.00,534.50 861.00,570.88 924.00,534.50" fill="#90be6d" fill-opacity="0.78" stroke="#f8f9fa" stroke-width="1.4" stroke-linejoin="round"/>
<circle cx="898.50" cy="479.94" r="9" fill="#11151c" fill-opacity="0.82" stroke="#90be6d" stroke-width="1.5"/>
<text x="898.50" y="483.94" fill="#f8f9fa" font-family="sans-serif" font-size="11" font-weight="700" text-anchor="middle">8</text>
</svg>
