<svg xmlns="http://www.w3.org/2000/svg" width="320" height="213" viewBox="0 0 320.00 213.21">
<polygon points="100.00,123.92 160.00,158.56 180.00,123.92 160.00,89.28" fill="#7aa6c2" stroke="#1c2b36" stroke-width="1.60" stroke-linejoin="round"/>
<polygon points="100.00,123.92 160.00,89.28 140.00,54.64 100.00,54.64" fill="#7aa6c2" stroke="#1c2b36" stroke-width="1.60" stroke-linejoin="round"/>
<polygon points="100.00,123.92 100.00,54.64 60.00,54.64 40.00,89.28" fill="#7aa6c2" stroke="#1c2b36" stroke-width="1.60" stroke-linejoin="round"/>
<polygon points="100.00,123.92 40.00,89.28 20.00,123.92 40.00,158.56" fill="#7aa6c2" stroke="#1c2b36" stroke-width="1.60" stroke-linejoin="round"/>
<polygon points="220.00,54.64 280.00,89.28 300.00,54.64 280.00,20.00" fill="#7aa6c2" stroke="#1c2b36" stroke-width="1.60" stroke-linejoin="round"/>
<polygon points="220.00,54.64 220.00,123.92 260.00,123.92 280.00,89.28" fill="#7aa6c2" stroke="#1c2b36" stroke-width="1.60" stroke-linejoin="round"/>
<polygon points="220.00,193.21 280.00,158.56 260.00,123.92 220.00,123.92" fill="#7aa6c2" stroke="#1c2b36" stroke-width="1.60" stroke-linejoin="round"/>
<polygon points="220.00,193.21 220.00,123.92 180.00,123.92 160.00,158.56" fill="#7aa6c2" stroke="#1c2b36" stroke-width="1.60" stroke-linejoin="round"/>
</svg>