<svg xmlns="http://www.w3.org/2000/svg" width="300" height="179" viewBox="0 0 300.00 178.56">
<polygon points="100.00,89.28 160.00,123.92 180.00,89.28 160.00,54.64" fill="#7aa6c2" stroke="#1c2b36" stroke-width="1.60" stroke-linejoin="round"/>
<polygon points="100.00,89.28 160.00,54.64 140.00,20.00 100.00,20.00" fill="#7aa6c2" stroke="#1c2b36" stroke-width="1.60" stroke-linejoin="round"/>
<polygon points="100.00,89.28 100.00,20.00 60.00,20.00 40.00,54.64" fill="#7aa6c2" stroke="#1c2b36" stroke-width="1.60" stroke-linejoin="round"/>
<polygon points="100.00,89.28 40.00,54.64 20.00,89.28 40.00,123.92" fill="#7aa6c2" stroke="#1c2b36" stroke-width="1.60" stroke-linejoin="round"/>
<polygon points="220.00,20.00 160.00,54.64 180.00,89.28 220.00,89.28" fill="#7aa6c2" stroke="#1c2b36" stroke-width="1.60" stroke-linejoin="round"/>
<polygon points="220.00,20.00 220.00,89.28 260.00,89.28 280.00,54.64" fill="#7aa6c2" stroke="#1c2b36" stroke-width="1.60" stroke-linejoin="round"/>
<polygon points="220.00,158.56 280.00,123.92 260.00,89.28 220.00,89.28" fill="#7aa6c2" stroke="#1c2b36" stroke-width="1.60" stroke-linejoin="round"/>
<polygon points="220.00,158.56 220.00,89.28 180.00,89.28 160.00,123.92" fill="#7aa6c2" stroke="#1c2b36" stroke-width="1.60" stroke-linejoin="round"/>
</svg>