<svg xmlns="http://www.w3.org/2000/svg" width="280" height="213" viewBox="0 0 280.00 213.21">
<polygon points="80.00,123.92 140.00,158.56 160.00,123.92 140.00,89.28" fill="#7aa6c2" stroke="#1c2b36" stroke-width="1.60" stroke-linejoin="round"/>
<polygon points="80.00,123.92 140.00,89.28 120.00,54.64 80.00,54.64" fill="#7aa6c2" stroke="#1c2b36" stroke-width="1.60" stroke-linejoin="round"/>
<polygon points="80.00,123.92 20.00,158.56 40.00,193.21 80.00,193.21" fill="#7aa6c2" stroke="#1c2b36" stroke-width="1.60" stroke-linejoin="round"/>
<polygon points="80.00,123.92 80.00,193.21 120.00,193.21 140.00,158.56" fill="#7aa6c2" stroke="#1c2b36" stroke-width="1.60" stroke-linejoin="round"/>
<polygon points="200.00,54.64 140.00,20.00 120.00,54.64 140.00,89.28" fill="#7aa6c2" stroke="#1c2b36" stroke-width="1.60" stroke-linejoin="round"/>
<polygon points="200.00,54.64 140.00,89.28 160.00,123.92 200.00,123.92" fill="#7aa6c2" stroke="#1c2b36" stroke-width="1.60" stroke-linejoin="round"/>
<polygon points="200.00,193.21 260.00,158.56 240.00,123.92 200.00,123.92" fill="#7aa6c2" stroke="#1c2b36" stroke-width="1.60" stroke-linejoin="round"/>
<polygon points="200.00,193.21 200.00,123.92 160.00,123.92 140.00,158.56" fill="#7aa6c2" stroke="#1c2b36" stroke-width="1.60" stroke-linejoin="round"/>
</svg>